<svg width="76" height="24" viewBox="0 0 76 24" fill="none" xmlns="http://www.w3.org/2000/svg">
<rect width="24" height="24" rx="4.98" fill="#F63A9E"/>
<circle cx="12" cy="11.0999" r="6.24" fill="white" stroke="white" stroke-width="1.92"/>
<circle cx="12" cy="11.1001" r="4.5" fill="#F63A9E"/>
<circle cx="12" cy="11.1001" r="1.5" fill="white"/>
<path d="M4.80005 10.98H5.10005C6.42553 10.98 7.50005 12.0545 7.50005 13.38V18.75C7.50005 19.4956 6.89563 20.1 6.15005 20.1C5.40446 20.1 4.80005 19.4956 4.80005 18.75V10.98Z" fill="white"/>
<path d="M28.875 14.195V12.245H30.72C31.33 12.245 31.785 12.125 32.085 11.885C32.385 11.635 32.535 11.225 32.535 10.655C32.535 10.115 32.395 9.715 32.115 9.455C31.845 9.185 31.43 9.05 30.87 9.05H28.875V7.1H31.005C31.575 7.1 32.105 7.17 32.595 7.31C33.085 7.44 33.51 7.65 33.87 7.94C34.24 8.23 34.525 8.595 34.725 9.035C34.935 9.475 35.04 10.005 35.04 10.625C35.04 11.415 34.86 12.075 34.5 12.605C34.15 13.135 33.64 13.535 32.97 13.805C32.3 14.065 31.48 14.195 30.51 14.195H28.875ZM27.06 17V7.1H29.49V17H27.06ZM35.789 17V12.815V6.5H38.219V8.48C38.219 8.69 38.204 8.97 38.174 9.32C38.154 9.66 38.119 10.025 38.069 10.415C38.029 10.805 37.984 11.18 37.934 11.54C37.894 11.89 37.859 12.185 37.829 12.425H37.964C38.054 11.595 38.209 10.92 38.429 10.4C38.649 9.87 38.949 9.485 39.329 9.245C39.709 8.995 40.169 8.87 40.709 8.87C41.559 8.87 42.189 9.175 42.599 9.785C43.009 10.385 43.214 11.295 43.214 12.515V17H40.784V12.62C40.784 12.06 40.709 11.65 40.559 11.39C40.409 11.13 40.164 11 39.824 11C39.524 11 39.254 11.115 39.014 11.345C38.774 11.565 38.579 11.92 38.429 12.41C38.289 12.9 38.219 13.535 38.219 14.315V17H35.789ZM47.9019 17.21C47.1419 17.21 46.4669 17.06 45.8769 16.76C45.2869 16.45 44.8269 15.99 44.4969 15.38C44.1669 14.76 44.0019 13.985 44.0019 13.055C44.0019 12.085 44.1719 11.295 44.5119 10.685C44.8619 10.065 45.3319 9.61 45.9219 9.32C46.5219 9.02 47.1969 8.87 47.9469 8.87C48.7269 8.87 49.4069 9.025 49.9869 9.335C50.5769 9.635 51.0319 10.095 51.3519 10.715C51.6819 11.325 51.8469 12.1 51.8469 13.04C51.8469 14.01 51.6719 14.805 51.3219 15.425C50.9819 16.035 50.5119 16.485 49.9119 16.775C49.3219 17.065 48.6519 17.21 47.9019 17.21ZM47.9619 15.425C48.2719 15.425 48.5319 15.34 48.7419 15.17C48.9519 14.99 49.1119 14.73 49.2219 14.39C49.3319 14.05 49.3869 13.645 49.3869 13.175C49.3869 12.655 49.3269 12.22 49.2069 11.87C49.0869 11.51 48.9119 11.235 48.6819 11.045C48.4619 10.855 48.1919 10.76 47.8719 10.76C47.5719 10.76 47.3169 10.85 47.1069 11.03C46.8969 11.2 46.7369 11.455 46.6269 11.795C46.5169 12.135 46.4619 12.545 46.4619 13.025C46.4619 13.785 46.5919 14.375 46.8519 14.795C47.1219 15.215 47.4919 15.425 47.9619 15.425ZM55.7997 17.18C54.8697 17.18 54.1747 16.945 53.7147 16.475C53.2647 15.995 53.0397 15.255 53.0397 14.255V10.97H52.1697V9.44H52.2147C52.8347 9.36 53.2747 9.155 53.5347 8.825C53.7947 8.485 53.9547 7.975 54.0147 7.295V7.265H55.4397V9.08H57.2547V11.03H55.4397V14.03C55.4397 14.41 55.5297 14.68 55.7097 14.84C55.8997 15 56.1297 15.08 56.3997 15.08C56.5397 15.08 56.6847 15.06 56.8347 15.02C56.9847 14.98 57.1247 14.925 57.2547 14.855V16.97C56.9447 17.06 56.6697 17.115 56.4297 17.135C56.1897 17.165 55.9797 17.18 55.7997 17.18ZM58.1572 17V9.08H60.5872V17H58.1572ZM59.3572 8.51C58.8972 8.51 58.5422 8.415 58.2922 8.225C58.0522 8.025 57.9322 7.74 57.9322 7.37C57.9322 6.99 58.0522 6.705 58.2922 6.515C58.5422 6.315 58.8972 6.215 59.3572 6.215C59.8272 6.215 60.1822 6.315 60.4222 6.515C60.6722 6.715 60.7972 7 60.7972 7.37C60.7972 7.73 60.6722 8.01 60.4222 8.21C60.1822 8.41 59.8272 8.51 59.3572 8.51ZM62.3928 17V12.155H61.2978V10.415L63.7128 10.58V10.46C63.1028 10.39 62.6428 10.245 62.3328 10.025C62.0228 9.805 61.8128 9.555 61.7028 9.275C61.6028 8.995 61.5528 8.74 61.5528 8.51C61.5528 8.06 61.6728 7.67 61.9128 7.34C62.1628 7 62.5028 6.74 62.9328 6.56C63.3728 6.38 63.8678 6.29 64.4178 6.29C64.8678 6.29 65.2678 6.35 65.6178 6.47C65.9778 6.59 66.3028 6.765 66.5928 6.995L66.3978 9.215C66.1278 9.025 65.8678 8.885 65.6178 8.795C65.3678 8.695 65.1128 8.645 64.8528 8.645C64.5528 8.645 64.3028 8.71 64.1028 8.84C63.9128 8.97 63.8178 9.175 63.8178 9.455C63.8178 9.605 63.8578 9.745 63.9378 9.875C64.0178 10.005 64.1428 10.11 64.3128 10.19C64.4928 10.26 64.7328 10.295 65.0328 10.295H66.5328V12.155H64.7928V17H62.3928ZM70.1475 19.34C69.8475 19.34 69.5175 19.315 69.1575 19.265C68.7975 19.215 68.4375 19.135 68.0775 19.025C67.7175 18.915 67.3825 18.775 67.0725 18.605L67.6275 16.16C67.9875 16.5 68.3875 16.74 68.8275 16.88C69.2775 17.02 69.6775 17.09 70.0275 17.09C70.5175 17.09 70.9275 16.995 71.2575 16.805C71.5975 16.605 71.8525 16.32 72.0225 15.95C72.1925 15.57 72.2775 15.11 72.2775 14.57V13.19H72.1425C72.1225 13.89 72.0075 14.465 71.7975 14.915C71.5975 15.355 71.3225 15.68 70.9725 15.89C70.6225 16.1 70.2175 16.205 69.7575 16.205C69.1875 16.205 68.7125 16.06 68.3325 15.77C67.9625 15.48 67.6825 15.045 67.4925 14.465C67.3025 13.885 67.2075 13.16 67.2075 12.29V9.08H69.6225V11.66C69.6225 12.51 69.7125 13.13 69.8925 13.52C70.0725 13.91 70.3575 14.105 70.7475 14.105C70.9475 14.105 71.1225 14.055 71.2725 13.955C71.4325 13.845 71.5625 13.685 71.6625 13.475C71.7625 13.255 71.8375 12.985 71.8875 12.665C71.9375 12.335 71.9625 11.955 71.9625 11.525V9.08H74.3775V14.66C74.3775 15.2 74.3225 15.71 74.2125 16.19C74.1025 16.66 73.9375 17.085 73.7175 17.465C73.4975 17.855 73.2175 18.19 72.8775 18.47C72.5475 18.75 72.1525 18.965 71.6925 19.115C71.2425 19.265 70.7275 19.34 70.1475 19.34Z" fill="#F63A9E"/>
</svg>
